# xmcd
#
# Track frame offsets:
#	150
#	14701
#	33352
#	50478
#	69486
#	84489
#	105140
#	122668
#	137686
#	153729
#
# Disc length: 2271 seconds
#
# Revision: 1
# Processed by: cddbd v1.5.1PL2 Copyright (c) Steve Scherf et al.
# Submitted via: audiograbber 1.83.01
#
DISCID=7e08dd0a
DTITLE=KOKTEL BEND - Avantura
DYEAR=2004
DGENRE=Pop
TTITLE0=Grmi seva
TTITLE1=Ej, da je srece
TTITLE2=Zakuni se
TTITLE3=Avantura
TTITLE4=Medena
TTITLE5=Ko zna
TTITLE6=Sta da biram
TTITLE7=Panika
TTITLE8=Iza osmeha (Kameleon)
TTITLE9=Izgubicu  galvu
EXTD=
EXTT0=
EXTT1=
EXTT2=
EXTT3=
EXTT4=
EXTT5=
EXTT6=
EXTT7=
EXTT8=
EXTT9=
PLAYORDER=
